<svg width="41" height="40" viewBox="0 0 41 40" fill="none" xmlns="http://www.w3.org/2000/svg">
<path fill-rule="evenodd" clip-rule="evenodd" d="M4.25 10C4.25 7.23858 6.48858 5 9.25 5H31.75C34.5114 5 36.75 7.23858 36.75 10V30C36.75 32.7614 34.5114 35 31.75 35H9.25C6.48858 35 4.25 32.7614 4.25 30V10ZM10.8661 11.6161C11.3543 11.128 12.1457 11.128 12.6339 11.6161L16.3839 15.3661C16.872 15.8543 16.872 16.6457 16.3839 17.1339L12.6339 20.8839C12.1457 21.372 11.3543 21.372 10.8661 20.8839C10.378 20.3957 10.378 19.6043 10.8661 19.1161L13.7322 16.25L10.8661 13.3839C10.378 12.8957 10.378 12.1043 10.8661 11.6161ZM18 18.75C17.3096 18.75 16.75 19.3096 16.75 20C16.75 20.6904 17.3096 21.25 18 21.25H23C23.6904 21.25 24.25 20.6904 24.25 20C24.25 19.3096 23.6904 18.75 23 18.75H18Z" fill="#6868E5"/>
</svg>
