<svg width="40" height="40" viewBox="0 0 40 40" fill="none" xmlns="http://www.w3.org/2000/svg">
<path d="M10.3516 39.1462H29.0514C31.8304 39.1462 33.6886 37.3717 33.6886 34.7266V5.86497C33.6886 3.21989 31.8304 1.42859 29.0514 1.42859H10.3516C7.57261 1.42859 5.71436 3.21989 5.71436 5.86497V34.7266C5.71436 37.3717 7.57261 39.1462 10.3516 39.1462ZM10.6865 36.4509C9.24673 36.4509 8.40967 35.6473 8.40967 34.2746V6.31699C8.40967 4.94422 9.24673 4.1239 10.6865 4.1239H28.7166C30.1396 4.1239 30.9934 4.94422 30.9934 6.31699V34.2746C30.9934 35.6473 30.1396 36.4509 28.7166 36.4509H10.6865ZM13.2813 16.8472H26.1385C27.0258 16.8472 27.6284 16.2612 27.6284 15.3237V11.7076C27.6284 10.7701 27.0258 10.1842 26.1385 10.1842H13.2813C12.394 10.1842 11.7914 10.7701 11.7914 11.7076V15.3237C11.7914 16.2612 12.394 16.8472 13.2813 16.8472ZM13.2813 30.3572H26.1385C27.0258 30.3572 27.6284 29.7544 27.6284 28.8337V25.2009C27.6284 24.2802 27.0258 23.6774 26.1385 23.6774H13.2813C12.394 23.6774 11.7914 24.2802 11.7914 25.2009V28.8337C11.7914 29.7544 12.394 30.3572 13.2813 30.3572Z" fill="#6868E5"/>
</svg>
