<svg width="41" height="40" viewBox="0 0 41 40" fill="none" xmlns="http://www.w3.org/2000/svg">
<path d="M34.2881 23.5155V10.7087C34.2881 8.95085 33.5346 8.38166 32.1116 7.79572C30.1362 6.99215 23.7579 4.56469 21.7825 3.9955C21.3304 3.87831 20.8449 3.74438 20.3762 3.74438C19.9074 3.74438 19.4219 3.84483 18.9867 3.9955C16.9945 4.68188 10.6161 6.97541 8.6407 7.79572C7.23444 8.39841 6.46436 8.95085 6.46436 10.7087V23.5155C6.46436 29.6261 9.72887 31.8861 19.2545 37.2265C19.6898 37.461 20.1083 37.5614 20.3762 37.5614C20.644 37.5614 21.0794 37.461 21.4978 37.2265C31.0068 31.8694 34.2881 29.6261 34.2881 23.5155ZM20.0246 34.4643C19.8237 34.414 19.6061 34.2968 19.3382 34.1294C11.6206 29.4253 9.12618 28.0691 9.12618 22.8961V11.2277C9.12618 10.6585 9.22663 10.4241 9.69538 10.2567C12.2902 9.36938 17.1786 7.59484 19.7065 6.59036C19.8405 6.54014 19.9409 6.50666 20.0246 6.48992V34.4643Z" fill="#6868E5"/>
</svg>
