<svg width="34" height="34" viewBox="0 0 34 34" fill="none" xmlns="http://www.w3.org/2000/svg">
<path d="M18.2748 8.07505C18.2748 7.37089 17.704 6.80005 16.9998 6.80005C16.2956 6.80005 15.7248 7.37089 15.7248 8.07505V15.725H8.0748C7.37064 15.725 6.7998 16.2959 6.7998 17C6.7998 17.7042 7.37064 18.275 8.0748 18.275L15.7248 18.275V25.925C15.7248 26.6292 16.2956 27.2 16.9998 27.2C17.704 27.2 18.2748 26.6292 18.2748 25.925V18.275L25.9248 18.2751C26.629 18.2751 27.1998 17.7042 27.1998 17C27.1998 16.2959 26.629 15.725 25.9248 15.725H18.2748V8.07505Z" fill="white"/>
</svg>
